<svg width="56" height="43" viewBox="0 0 56 43" fill="none" xmlns="http://www.w3.org/2000/svg">
<path d="M48.9016 9.40442C45.1609 9.44641 42.0875 11.7897 42.0109 14.6621C41.9562 16.7031 43.3781 18.492 45.5109 19.4327V28.8899C45.5109 33.7024 40.0203 37.6247 33.2609 37.6247C26.6984 37.6247 21.3172 33.9208 21.0219 29.293C28.9844 28.0332 35 22.6075 35 16.1235V3.07165C35 2.11417 34.1141 1.28268 32.8891 1.09791L26.0094 0.0396477C24.5875 -0.178724 23.2094 0.526784 22.925 1.61864L22.575 2.93727C22.2906 4.02912 23.2094 5.08738 24.6313 5.30576L27.9891 5.81809V16.0143C27.9891 20.4574 23.3734 24.1361 17.5875 24.1781C11.7469 24.2201 6.98906 20.5917 6.98906 16.1151V5.82649L10.3469 5.31415C11.7688 5.09578 12.6875 4.03752 12.4031 2.94567L12.0641 1.62704C11.7797 0.535183 10.4016 -0.170325 8.97969 0.0480466L2.11094 1.08951C0.885937 1.28268 0 2.10578 0 3.07165V16.1235C0 22.6159 6.02656 28.05 14.0109 29.293C14.2953 36.8856 22.8156 43 33.25 43C43.8594 43 52.5 36.6672 52.5 28.8899V19.4327C54.5891 18.5004 56 16.7702 56 14.7797C56 11.7813 52.8062 9.36242 48.9016 9.40442ZM49 16.1235C48.0375 16.1235 47.25 15.5188 47.25 14.7797C47.25 14.0406 48.0375 13.4359 49 13.4359C49.9625 13.4359 50.75 14.0406 50.75 14.7797C50.75 15.5188 49.9625 16.1235 49 16.1235Z" fill="#166FC1" fill-opacity="0.9"/>
</svg>
